<svg xmlns="http://www.w3.org/2000/svg" viewBox="0 0 64 64" role="img" aria-labelledby="title">
  <title id="title">Monetra favicon</title>
  <rect width="64" height="64" rx="15" fill="#064e3b"/>
  <path d="M13 46V19c0-4 3-7 7-7 2 0 4 1 5 3l7 8 7-8c1-2 3-3 5-3 4 0 7 3 7 7v11h-9v-7l-7 8c-1 1-2 2-3 2s-2-1-3-2l-7-8v23c0 3-2 5-5 5s-4-2-4-5Z" fill="#f8faf9"/>
  <path d="M31 29h19c4 0 7 3 7 7v9c0 4-3 7-7 7H31c-4 0-7-3-7-7v-9c0-4 3-7 7-7Z" fill="#20a773" stroke="#a7f3d0"/>
  <path d="M47 37h10v8H47a4 4 0 0 1 0-8Z" fill="#064e3b"/>
  <circle cx="48" cy="41" r="1.5" fill="#f8faf9"/>
</svg>
