<svg
  xmlns="http://www.w3.org/2000/svg"
  viewBox="0 0 512 512"
  role="img"
  aria-labelledby="monetra-mark-title monetra-mark-description"
>
  <title id="monetra-mark-title">Monetra</title>
  <desc id="monetra-mark-description">
    A letter M combined with a wallet.
  </desc>

  <defs>
    <linearGradient id="monetra-background" x1="80" y1="48" x2="432" y2="464">
      <stop offset="0" stop-color="#087f5b" />
      <stop offset="1" stop-color="#064e3b" />
    </linearGradient>

    <linearGradient id="monetra-wallet" x1="252" y1="226" x2="430" y2="398">
      <stop offset="0" stop-color="#20a773" />
      <stop offset="1" stop-color="#087f5b" />
    </linearGradient>
  </defs>

  <rect width="512" height="512" rx="116" fill="url(#monetra-background)" />

  <!-- Simplified M -->
  <path
    d="M112 354V158c0-26 21-47 47-47 13 0 26 6 35 16l62 70 62-70c9-10 22-16 35-16 26 0 47 21 47 47v78h-70v-60l-48 55c-7 8-16 12-26 12s-19-4-26-12l-48-55v178c0 20-16 36-36 36s-34-16-34-36Z"
    fill="#f8faf9"
  />

  <!-- Wallet -->
  <path
    d="M245 238h148c29 0 52 23 52 52v89c0 29-23 52-52 52H245c-29 0-52-23-52-52v-89c0-29 23-52 52-52Z"
    fill="url(#monetra-wallet)"
    stroke="#a7f3d0"
    stroke-width="8"
  />

  <path
    d="M231 238v-18c0-23 15-43 37-49l91-25c18-5 36 9 36 28v64"
    fill="none"
    stroke="#a7f3d0"
    stroke-width="18"
    stroke-linecap="round"
    stroke-linejoin="round"
  />

  <!-- Wallet clasp -->
  <path
    d="M368 302h77v66h-77c-18 0-33-15-33-33s15-33 33-33Z"
    fill="#064e3b"
  />
  <circle cx="372" cy="335" r="11" fill="#f8faf9" />
</svg>
